<?xml version="1.0" encoding="UTF-8" standalone="no"?>
<!DOCTYPE svg PUBLIC "-//W3C//DTD SVG 1.1//EN"
 "http://www.w3.org/Graphics/SVG/1.1/DTD/svg11.dtd">
<!-- Generated by graphviz version 2.30.1 (20131117.1026)
 -->
<!-- Title: controllers_diagram Pages: 1 -->
<svg width="2073pt" height="1549pt"
 viewBox="0.00 0.00 2073.37 1548.66" xmlns="http://www.w3.org/2000/svg" xmlns:xlink="http://www.w3.org/1999/xlink">
<g id="graph0" class="graph" transform="scale(1 1) rotate(0) translate(4 1544.66)">
<title>controllers_diagram</title>
<polygon fill="white" stroke="white" points="-4,5 -4,-1544.66 2070.37,-1544.66 2070.37,5 -4,5"/>
<!-- _diagram_info -->
<g id="node1" class="node"><title>_diagram_info</title>
<text text-anchor="start" x="1592" y="-69" font-family="Times,serif" font-size="13.00">Controllers diagram</text>
<text text-anchor="start" x="1592" y="-53.4" font-family="Times,serif" font-size="13.00">Date: Nov 17 2013 &#45; 12:28</text>
<text text-anchor="start" x="1592" y="-37.8" font-family="Times,serif" font-size="13.00">Migration version: 104</text>
<text text-anchor="start" x="1592" y="-22.2" font-family="Times,serif" font-size="13.00">Generated by RailRoady 1.1.1</text>
<text text-anchor="start" x="1592" y="-6.6" font-family="Times,serif" font-size="13.00">http://railroady.prestonlee.com</text>
</g>
<!-- AccountsController -->
<g id="node2" class="node"><title>AccountsController</title>
<ellipse fill="none" stroke="black" cx="752.961" cy="-979.356" rx="87.4061" ry="18"/>
<text text-anchor="middle" x="752.961" y="-973.756" font-family="Times,serif" font-size="14.00">AccountsController</text>
</g>
<!-- Admin::BaseController -->
<g id="node3" class="node"><title>Admin::BaseController</title>
<ellipse fill="none" stroke="black" cx="1052.99" cy="-646.789" rx="101.886" ry="18"/>
<text text-anchor="middle" x="1052.99" y="-641.189" font-family="Times,serif" font-size="14.00">Admin::BaseController</text>
</g>
<!-- Admin::CacheController -->
<g id="node4" class="node"><title>Admin::CacheController</title>
<ellipse fill="none" stroke="black" cx="1039.72" cy="-159.062" rx="107.099" ry="18"/>
<text text-anchor="middle" x="1039.72" y="-153.462" font-family="Times,serif" font-size="14.00">Admin::CacheController</text>
</g>
<!-- Admin::BaseController&#45;&gt;Admin::CacheController -->
<g id="edge3" class="edge"><title>Admin::BaseController&#45;&gt;Admin::CacheController</title>
<path fill="none" stroke="black" d="M1052.5,-628.559C1050.4,-551.604 1042.3,-253.758 1040.21,-177.124"/>
</g>
<!-- Admin::CategoriesController -->
<g id="node5" class="node"><title>Admin::CategoriesController</title>
<ellipse fill="none" stroke="black" cx="1155.97" cy="-837.533" rx="124.436" ry="18"/>
<text text-anchor="middle" x="1155.97" y="-831.933" font-family="Times,serif" font-size="14.00">Admin::CategoriesController</text>
</g>
<!-- Admin::BaseController&#45;&gt;Admin::CategoriesController -->
<g id="edge4" class="edge"><title>Admin::BaseController&#45;&gt;Admin::CategoriesController</title>
<path fill="none" stroke="black" d="M1062.68,-664.733C1082.31,-701.088 1126.56,-783.066 1146.23,-819.497"/>
</g>
<!-- Admin::ContentController -->
<g id="node6" class="node"><title>Admin::ContentController</title>
<ellipse fill="none" stroke="black" cx="1343.91" cy="-707.964" rx="113.5" ry="18"/>
<text text-anchor="middle" x="1343.91" y="-702.364" font-family="Times,serif" font-size="14.00">Admin::ContentController</text>
</g>
<!-- Admin::BaseController&#45;&gt;Admin::ContentController -->
<g id="edge5" class="edge"><title>Admin::BaseController&#45;&gt;Admin::ContentController</title>
<path fill="none" stroke="black" d="M1118.64,-660.594C1165.4,-670.426 1228.09,-683.608 1275.46,-693.571"/>
</g>
<!-- Admin::DashboardController -->
<g id="node7" class="node"><title>Admin::DashboardController</title>
<ellipse fill="none" stroke="black" cx="546.548" cy="-505.1" rx="124.512" ry="18"/>
<text text-anchor="middle" x="546.548" y="-499.5" font-family="Times,serif" font-size="14.00">Admin::DashboardController</text>
</g>
<!-- Admin::BaseController&#45;&gt;Admin::DashboardController -->
<g id="edge6" class="edge"><title>Admin::BaseController&#45;&gt;Admin::DashboardController</title>
<path fill="none" stroke="black" d="M998.314,-631.491C901.888,-604.513 702.526,-548.738 604.098,-521.2"/>
</g>
<!-- Admin::FeedbackController -->
<g id="node8" class="node"><title>Admin::FeedbackController</title>
<ellipse fill="none" stroke="black" cx="494.19" cy="-167.499" rx="119.845" ry="18"/>
<text text-anchor="middle" x="494.19" y="-161.899" font-family="Times,serif" font-size="14.00">Admin::FeedbackController</text>
</g>
<!-- Admin::BaseController&#45;&gt;Admin::FeedbackController -->
<g id="edge7" class="edge"><title>Admin::BaseController&#45;&gt;Admin::FeedbackController</title>
<path fill="none" stroke="black" d="M1024.66,-629.331C973.116,-597.063 861.457,-524.768 775.973,-452.571 666.719,-360.299 551.292,-232.471 510.005,-185.63"/>
</g>
<!-- Admin::PagesController -->
<g id="node9" class="node"><title>Admin::PagesController</title>
<ellipse fill="none" stroke="black" cx="1959.91" cy="-208.735" rx="105.402" ry="18"/>
<text text-anchor="middle" x="1959.91" y="-203.135" font-family="Times,serif" font-size="14.00">Admin::PagesController</text>
</g>
<!-- Admin::BaseController&#45;&gt;Admin::PagesController -->
<g id="edge8" class="edge"><title>Admin::BaseController&#45;&gt;Admin::PagesController</title>
<path fill="none" stroke="black" d="M1087.99,-629.885C1232.2,-560.23 1779.61,-295.825 1924.53,-225.825"/>
</g>
<!-- Admin::PostTypesController -->
<g id="node10" class="node"><title>Admin::PostTypesController</title>
<ellipse fill="none" stroke="black" cx="789.195" cy="-155.838" rx="122.475" ry="18"/>
<text text-anchor="middle" x="789.195" y="-150.238" font-family="Times,serif" font-size="14.00">Admin::PostTypesController</text>
</g>
<!-- Admin::BaseController&#45;&gt;Admin::PostTypesController -->
<g id="edge9" class="edge"><title>Admin::BaseController&#45;&gt;Admin::PostTypesController</title>
<path fill="none" stroke="black" d="M1052.56,-628.552C1051.1,-593.131 1044.84,-513.194 1017.95,-452.603 964.656,-332.492 853.039,-217.16 808.322,-173.848"/>
</g>
<!-- Admin::ProfilesController -->
<g id="node11" class="node"><title>Admin::ProfilesController</title>
<ellipse fill="none" stroke="black" cx="1285.18" cy="-150" rx="112.369" ry="18"/>
<text text-anchor="middle" x="1285.18" y="-144.4" font-family="Times,serif" font-size="14.00">Admin::ProfilesController</text>
</g>
<!-- Admin::BaseController&#45;&gt;Admin::ProfilesController -->
<g id="edge10" class="edge"><title>Admin::BaseController&#45;&gt;Admin::ProfilesController</title>
<path fill="none" stroke="black" d="M1059.72,-628.811C1072.68,-594.527 1102.37,-517.585 1131.11,-454.435 1181.41,-343.911 1249.95,-215.179 1275.26,-168.274"/>
</g>
<!-- Admin::RedirectsController -->
<g id="node12" class="node"><title>Admin::RedirectsController</title>
<ellipse fill="none" stroke="black" cx="896.963" cy="-452.587" rx="119.279" ry="18"/>
<text text-anchor="middle" x="896.963" y="-446.987" font-family="Times,serif" font-size="14.00">Admin::RedirectsController</text>
</g>
<!-- Admin::BaseController&#45;&gt;Admin::RedirectsController -->
<g id="edge11" class="edge"><title>Admin::BaseController&#45;&gt;Admin::RedirectsController</title>
<path fill="none" stroke="black" d="M1038.59,-628.867C1008.87,-591.87 941.022,-507.425 911.327,-470.466"/>
</g>
<!-- Admin::ResourcesController -->
<g id="node13" class="node"><title>Admin::ResourcesController</title>
<ellipse fill="none" stroke="black" cx="122.61" cy="-204.907" rx="122.72" ry="18"/>
<text text-anchor="middle" x="122.61" y="-199.307" font-family="Times,serif" font-size="14.00">Admin::ResourcesController</text>
</g>
<!-- Admin::BaseController&#45;&gt;Admin::ResourcesController -->
<g id="edge12" class="edge"><title>Admin::BaseController&#45;&gt;Admin::ResourcesController</title>
<path fill="none" stroke="black" d="M1017.38,-629.872C869.883,-559.821 307.773,-292.849 158.945,-222.164"/>
</g>
<!-- Admin::SeoController -->
<g id="node14" class="node"><title>Admin::SeoController</title>
<ellipse fill="none" stroke="black" cx="1966.54" cy="-640.607" rx="97.3136" ry="18"/>
<text text-anchor="middle" x="1966.54" y="-635.007" font-family="Times,serif" font-size="14.00">Admin::SeoController</text>
</g>
<!-- Admin::BaseController&#45;&gt;Admin::SeoController -->
<g id="edge13" class="edge"><title>Admin::BaseController&#45;&gt;Admin::SeoController</title>
<path fill="none" stroke="black" d="M1154.69,-646.1C1331.89,-644.901 1694.92,-642.445 1869.1,-641.266"/>
</g>
<!-- Admin::SettingsController -->
<g id="node15" class="node"><title>Admin::SettingsController</title>
<ellipse fill="none" stroke="black" cx="1583.92" cy="-510.855" rx="114.085" ry="18"/>
<text text-anchor="middle" x="1583.92" y="-505.255" font-family="Times,serif" font-size="14.00">Admin::SettingsController</text>
</g>
<!-- Admin::BaseController&#45;&gt;Admin::SettingsController -->
<g id="edge14" class="edge"><title>Admin::BaseController&#45;&gt;Admin::SettingsController</title>
<path fill="none" stroke="black" d="M1111.08,-631.918C1212.52,-605.946 1420.94,-552.584 1523.79,-526.249"/>
</g>
<!-- Admin::SidebarController -->
<g id="node16" class="node"><title>Admin::SidebarController</title>
<ellipse fill="none" stroke="black" cx="1330.51" cy="-986.554" rx="112.341" ry="18"/>
<text text-anchor="middle" x="1330.51" y="-980.954" font-family="Times,serif" font-size="14.00">Admin::SidebarController</text>
</g>
<!-- Admin::BaseController&#45;&gt;Admin::SidebarController -->
<g id="edge15" class="edge"><title>Admin::BaseController&#45;&gt;Admin::SidebarController</title>
<path fill="none" stroke="black" d="M1083.24,-664.166C1132,-693.679 1227.94,-758.198 1281.79,-837.607 1310.04,-879.265 1322.9,-938.499 1327.86,-968.151"/>
</g>
<!-- Admin::TagsController -->
<g id="node17" class="node"><title>Admin::TagsController</title>
<ellipse fill="none" stroke="black" cx="1233.73" cy="-454.592" rx="101.037" ry="18"/>
<text text-anchor="middle" x="1233.73" y="-448.992" font-family="Times,serif" font-size="14.00">Admin::TagsController</text>
</g>
<!-- Admin::BaseController&#45;&gt;Admin::TagsController -->
<g id="edge16" class="edge"><title>Admin::BaseController&#45;&gt;Admin::TagsController</title>
<path fill="none" stroke="black" d="M1070,-628.707C1104.53,-591.983 1182.51,-509.052 1216.9,-472.486"/>
</g>
<!-- Admin::TextfiltersController -->
<g id="node18" class="node"><title>Admin::TextfiltersController</title>
<ellipse fill="none" stroke="black" cx="1579" cy="-162.645" rx="121.881" ry="18"/>
<text text-anchor="middle" x="1579" y="-157.045" font-family="Times,serif" font-size="14.00">Admin::TextfiltersController</text>
</g>
<!-- Admin::BaseController&#45;&gt;Admin::TextfiltersController -->
<g id="edge17" class="edge"><title>Admin::BaseController&#45;&gt;Admin::TextfiltersController</title>
<path fill="none" stroke="black" d="M1084.4,-629.471C1138.96,-598.553 1253.36,-530.002 1336.34,-454.749 1437.43,-363.07 1533.69,-228.668 1566.84,-180.576"/>
</g>
<!-- Admin::ThemesController -->
<g id="node19" class="node"><title>Admin::ThemesController</title>
<ellipse fill="none" stroke="black" cx="776.441" cy="-705.395" rx="113.481" ry="18"/>
<text text-anchor="middle" x="776.441" y="-699.795" font-family="Times,serif" font-size="14.00">Admin::ThemesController</text>
</g>
<!-- Admin::BaseController&#45;&gt;Admin::ThemesController -->
<g id="edge18" class="edge"><title>Admin::BaseController&#45;&gt;Admin::ThemesController</title>
<path fill="none" stroke="black" d="M987.455,-660.678C944.488,-669.783 888.423,-681.664 844.883,-690.891"/>
</g>
<!-- Admin::UsersController -->
<g id="node20" class="node"><title>Admin::UsersController</title>
<ellipse fill="none" stroke="black" cx="134.282" cy="-619.649" rx="104.827" ry="18"/>
<text text-anchor="middle" x="134.282" y="-614.049" font-family="Times,serif" font-size="14.00">Admin::UsersController</text>
</g>
<!-- Admin::BaseController&#45;&gt;Admin::UsersController -->
<g id="edge19" class="edge"><title>Admin::BaseController&#45;&gt;Admin::UsersController</title>
<path fill="none" stroke="black" d="M952.488,-643.82C776.843,-638.631 415.831,-627.966 237.973,-622.712"/>
</g>
<!-- ApplicationController -->
<g id="node21" class="node"><title>ApplicationController</title>
<ellipse fill="none" stroke="black" cx="948.533" cy="-855.596" rx="96.1448" ry="18"/>
<text text-anchor="middle" x="948.533" y="-849.996" font-family="Times,serif" font-size="14.00">ApplicationController</text>
</g>
<!-- ApplicationController&#45;&gt;AccountsController -->
<g id="edge1" class="edge"><title>ApplicationController&#45;&gt;AccountsController</title>
<path fill="none" stroke="black" d="M920.927,-873.065C883.548,-896.719 817.254,-938.671 780.112,-962.175"/>
</g>
<!-- ApplicationController&#45;&gt;Admin::BaseController -->
<g id="edge2" class="edge"><title>ApplicationController&#45;&gt;Admin::BaseController</title>
<path fill="none" stroke="black" d="M957.62,-837.431C977.426,-797.842 1024.28,-704.178 1044,-664.763"/>
</g>
<!-- ContentController -->
<g id="node27" class="node"><title>ContentController</title>
<ellipse fill="none" stroke="black" cx="1216.34" cy="-1249.04" rx="81.1178" ry="18"/>
<text text-anchor="middle" x="1216.34" y="-1243.44" font-family="Times,serif" font-size="14.00">ContentController</text>
</g>
<!-- ApplicationController&#45;&gt;ContentController -->
<g id="edge25" class="edge"><title>ApplicationController&#45;&gt;ContentController</title>
<path fill="none" stroke="black" d="M969.937,-873.324C1007.66,-905.51 1086.57,-977.168 1135.05,-1051.91 1174.24,-1112.32 1200.8,-1194.73 1211.3,-1230.84"/>
</g>
<!-- FeedbackController -->
<g id="node28" class="node"><title>FeedbackController</title>
<ellipse fill="none" stroke="black" cx="496.077" cy="-1167.14" rx="87.9625" ry="18"/>
<text text-anchor="middle" x="496.077" y="-1161.54" font-family="Times,serif" font-size="14.00">FeedbackController</text>
</g>
<!-- ApplicationController&#45;&gt;FeedbackController -->
<g id="edge26" class="edge"><title>ApplicationController&#45;&gt;FeedbackController</title>
<path fill="none" stroke="black" d="M936.106,-873.825C917.769,-899.736 881.336,-947.606 841.761,-979.505 742.343,-1059.64 603.717,-1122.82 536.212,-1151.06"/>
</g>
<!-- SetupController -->
<g id="node30" class="node"><title>SetupController</title>
<ellipse fill="none" stroke="black" cx="477.893" cy="-825.023" rx="72.9544" ry="18"/>
<text text-anchor="middle" x="477.893" y="-819.423" font-family="Times,serif" font-size="14.00">SetupController</text>
</g>
<!-- ApplicationController&#45;&gt;SetupController -->
<g id="edge28" class="edge"><title>ApplicationController&#45;&gt;SetupController</title>
<path fill="none" stroke="black" d="M857.51,-849.683C767.191,-843.816 630.682,-834.948 548.329,-829.599"/>
</g>
<!-- TextfilterController -->
<g id="node32" class="node"><title>TextfilterController</title>
<ellipse fill="none" stroke="black" cx="1047.46" cy="-1051.71" rx="85.982" ry="18"/>
<text text-anchor="middle" x="1047.46" y="-1046.11" font-family="Times,serif" font-size="14.00">TextfilterController</text>
</g>
<!-- ApplicationController&#45;&gt;TextfilterController -->
<g id="edge30" class="edge"><title>ApplicationController&#45;&gt;TextfilterController</title>
<path fill="none" stroke="black" d="M957.662,-873.695C976.509,-911.056 1019.53,-996.336 1038.36,-1033.66"/>
</g>
<!-- XmlController -->
<g id="node35" class="node"><title>XmlController</title>
<ellipse fill="none" stroke="black" cx="857.801" cy="-1242.21" rx="67.7969" ry="18"/>
<text text-anchor="middle" x="857.801" y="-1236.61" font-family="Times,serif" font-size="14.00">XmlController</text>
</g>
<!-- ApplicationController&#45;&gt;XmlController -->
<g id="edge33" class="edge"><title>ApplicationController&#45;&gt;XmlController</title>
<path fill="none" stroke="black" d="M944.278,-873.725C929.038,-938.665 877.272,-1159.24 862.046,-1224.12"/>
</g>
<!-- ArticlesController -->
<g id="node22" class="node"><title>ArticlesController</title>
<ellipse fill="none" stroke="black" cx="1033.46" cy="-1522.66" rx="81.099" ry="18"/>
<text text-anchor="middle" x="1033.46" y="-1517.06" font-family="Times,serif" font-size="14.00">ArticlesController</text>
</g>
<!-- AuthorsController -->
<g id="node23" class="node"><title>AuthorsController</title>
<ellipse fill="none" stroke="black" cx="618.609" cy="-1509.36" rx="81.6928" ry="18"/>
<text text-anchor="middle" x="618.609" y="-1503.76" font-family="Times,serif" font-size="14.00">AuthorsController</text>
</g>
<!-- BackendController -->
<g id="node24" class="node"><title>BackendController</title>
<ellipse fill="none" stroke="black" cx="1451.23" cy="-1514.23" rx="84.5302" ry="18"/>
<text text-anchor="middle" x="1451.23" y="-1508.63" font-family="Times,serif" font-size="14.00">BackendController</text>
</g>
<!-- CategoriesController -->
<g id="node25" class="node"><title>CategoriesController</title>
<ellipse fill="none" stroke="black" cx="1924.14" cy="-1468.41" rx="92.0532" ry="18"/>
<text text-anchor="middle" x="1924.14" y="-1462.81" font-family="Times,serif" font-size="14.00">CategoriesController</text>
</g>
<!-- CommentsController -->
<g id="node26" class="node"><title>CommentsController</title>
<ellipse fill="none" stroke="black" cx="154.656" cy="-1459.21" rx="92.6566" ry="18"/>
<text text-anchor="middle" x="154.656" y="-1453.61" font-family="Times,serif" font-size="14.00">CommentsController</text>
</g>
<!-- ContentController&#45;&gt;ArticlesController -->
<g id="edge20" class="edge"><title>ContentController&#45;&gt;ArticlesController</title>
<path fill="none" stroke="black" d="M1204.34,-1266.99C1171.2,-1316.57 1078.7,-1454.99 1045.51,-1504.64"/>
</g>
<!-- ContentController&#45;&gt;AuthorsController -->
<g id="edge21" class="edge"><title>ContentController&#45;&gt;AuthorsController</title>
<path fill="none" stroke="black" d="M1179.4,-1265.13C1072.37,-1311.74 762.882,-1446.53 655.683,-1493.21"/>
</g>
<!-- ContentController&#45;&gt;BackendController -->
<g id="edge22" class="edge"><title>ContentController&#45;&gt;BackendController</title>
<path fill="none" stroke="black" d="M1232.11,-1266.85C1274.9,-1315.16 1392.81,-1448.28 1435.52,-1496.5"/>
</g>
<!-- GroupingController -->
<g id="node29" class="node"><title>GroupingController</title>
<ellipse fill="none" stroke="black" cx="1578.23" cy="-1184.24" rx="87.9909" ry="18"/>
<text text-anchor="middle" x="1578.23" y="-1178.64" font-family="Times,serif" font-size="14.00">GroupingController</text>
</g>
<!-- ContentController&#45;&gt;GroupingController -->
<g id="edge27" class="edge"><title>ContentController&#45;&gt;GroupingController</title>
<path fill="none" stroke="black" d="M1279.79,-1237.68C1344.96,-1226.01 1445.96,-1207.92 1512.1,-1196.08"/>
</g>
<!-- ThemeController -->
<g id="node33" class="node"><title>ThemeController</title>
<ellipse fill="none" stroke="black" cx="1619.57" cy="-849.165" rx="77.5824" ry="18"/>
<text text-anchor="middle" x="1619.57" y="-843.565" font-family="Times,serif" font-size="14.00">ThemeController</text>
</g>
<!-- ContentController&#45;&gt;ThemeController -->
<g id="edge31" class="edge"><title>ContentController&#45;&gt;ThemeController</title>
<path fill="none" stroke="black" d="M1234.18,-1231.34C1300.79,-1165.29 1534.45,-933.58 1601.47,-867.113"/>
</g>
<!-- FeedbackController&#45;&gt;CommentsController -->
<g id="edge24" class="edge"><title>FeedbackController&#45;&gt;CommentsController</title>
<path fill="none" stroke="black" d="M475.489,-1184.75C414.649,-1236.8 236.146,-1389.5 175.271,-1441.57"/>
</g>
<!-- TrackbacksController -->
<g id="node34" class="node"><title>TrackbacksController</title>
<ellipse fill="none" stroke="black" cx="113.372" cy="-1025.16" rx="94.7965" ry="18"/>
<text text-anchor="middle" x="113.372" y="-1019.56" font-family="Times,serif" font-size="14.00">TrackbacksController</text>
</g>
<!-- FeedbackController&#45;&gt;TrackbacksController -->
<g id="edge32" class="edge"><title>FeedbackController&#45;&gt;TrackbacksController</title>
<path fill="none" stroke="black" d="M453.29,-1151.27C379.854,-1124.02 230.612,-1068.65 156.763,-1041.26"/>
</g>
<!-- GroupingController&#45;&gt;CategoriesController -->
<g id="edge23" class="edge"><title>GroupingController&#45;&gt;CategoriesController</title>
<path fill="none" stroke="black" d="M1599.61,-1201.8C1661.47,-1252.62 1840.22,-1399.47 1902.47,-1450.6"/>
</g>
<!-- TagsController -->
<g id="node31" class="node"><title>TagsController</title>
<ellipse fill="none" stroke="black" cx="1970.2" cy="-1049.93" rx="68.655" ry="18"/>
<text text-anchor="middle" x="1970.2" y="-1044.33" font-family="Times,serif" font-size="14.00">TagsController</text>
</g>
<!-- GroupingController&#45;&gt;TagsController -->
<g id="edge29" class="edge"><title>GroupingController&#45;&gt;TagsController</title>
<path fill="none" stroke="black" d="M1623.58,-1168.7C1700.16,-1142.46 1854,-1089.75 1928.23,-1064.31"/>
</g>
</g>
</svg>
