<?xml version="1.0" encoding="UTF-8" standalone="no"?>
<!DOCTYPE svg PUBLIC "-//W3C//DTD SVG 1.1//EN"
 "http://www.w3.org/Graphics/SVG/1.1/DTD/svg11.dtd">
<!-- Generated by graphviz version 2.30.1 (20131117.1026)
 -->
<!-- Title: models_diagram Pages: 1 -->
<svg width="2209pt" height="496pt"
 viewBox="0.00 0.00 2209.00 496.00" xmlns="http://www.w3.org/2000/svg" xmlns:xlink="http://www.w3.org/1999/xlink">
<g id="graph0" class="graph" transform="scale(1 1) rotate(0) translate(4 492)">
<title>models_diagram</title>
<polygon fill="white" stroke="white" points="-4,5 -4,-492 2206,-492 2206,5 -4,5"/>
<!-- _diagram_info -->
<g id="node1" class="node"><title>_diagram_info</title>
<text text-anchor="start" x="281.28" y="-471" font-family="Times,serif" font-size="13.00">Models diagram</text>
<text text-anchor="start" x="281.28" y="-455.4" font-family="Times,serif" font-size="13.00">Date: Nov 17 2013 &#45; 12:28</text>
<text text-anchor="start" x="281.28" y="-439.8" font-family="Times,serif" font-size="13.00">Migration version: 104</text>
<text text-anchor="start" x="281.28" y="-424.2" font-family="Times,serif" font-size="13.00">Generated by RailRoady 1.1.1</text>
<text text-anchor="start" x="281.28" y="-408.6" font-family="Times,serif" font-size="13.00">http://railroady.prestonlee.com</text>
</g>
<!-- Article::States -->
<g id="node2" class="node"><title>Article::States</title>
<polygon fill="none" stroke="black" stroke-dasharray="1,5" points="563.067,-463 466.933,-463 466.933,-427 563.067,-427 563.067,-463"/>
<text text-anchor="middle" x="515" y="-439.4" font-family="Times,serif" font-size="14.00">Article::States</text>
</g>
<!-- Article -->
<g id="node3" class="node"><title>Article</title>
<ellipse fill="none" stroke="black" cx="706" cy="-182" rx="37.2739" ry="18"/>
<text text-anchor="middle" x="706" y="-176.4" font-family="Times,serif" font-size="14.00">Article</text>
</g>
<!-- Trigger -->
<g id="node30" class="node"><title>Trigger</title>
<ellipse fill="none" stroke="black" cx="328" cy="-92" rx="39.4869" ry="18"/>
<text text-anchor="middle" x="328" y="-86.4" font-family="Times,serif" font-size="14.00">Trigger</text>
</g>
<!-- Article&#45;&gt;Trigger -->
<g id="edge1" class="edge"><title>Article&#45;&gt;Trigger</title>
<path fill="none" stroke="#dbbc14" d="M670.668,-167.029C666.775,-165.848 662.833,-164.801 659,-164 598.619,-151.384 438.312,-171.179 382,-146 367.953,-139.719 355.454,-128.089 346.029,-117.32"/>
<ellipse fill="none" stroke="#dbbc14" cx="674.74" cy="-168.361" rx="4.00001" ry="4.00001"/>
<polygon fill="#dbbc14" stroke="#dbbc14" points="345.817,-117.064 342.913,-106.489 342.631,-113.21 339.445,-109.356 339.445,-109.356 339.445,-109.356 342.631,-113.21 335.977,-112.223 345.817,-117.064 345.817,-117.064"/>
</g>
<!-- Ping -->
<g id="node18" class="node"><title>Ping</title>
<ellipse fill="none" stroke="black" cx="1050" cy="-92" rx="28.6197" ry="18"/>
<text text-anchor="middle" x="1050" y="-86.4" font-family="Times,serif" font-size="14.00">Ping</text>
</g>
<!-- Article&#45;&gt;Ping -->
<g id="edge2" class="edge"><title>Article&#45;&gt;Ping</title>
<path fill="none" stroke="#bb4357" d="M751.134,-177.348C796.716,-172.865 868.799,-163.589 929,-146 961.066,-136.631 995.816,-120.765 1019.81,-108.828"/>
<ellipse fill="none" stroke="#bb4357" cx="746.922" cy="-177.75" rx="4" ry="4"/>
<polygon fill="#bb4357" stroke="#bb4357" points="1019.84,-108.813 1030.8,-108.324 1024.31,-106.56 1028.77,-104.307 1028.77,-104.307 1028.77,-104.307 1024.31,-106.56 1026.74,-100.29 1019.84,-108.813 1019.84,-108.813"/>
</g>
<!-- Trackback -->
<g id="node29" class="node"><title>Trackback</title>
<ellipse fill="none" stroke="black" cx="749" cy="-18" rx="51.1703" ry="18"/>
<text text-anchor="middle" x="749" y="-12.4" font-family="Times,serif" font-size="14.00">Trackback</text>
</g>
<!-- Article&#45;&gt;Trackback -->
<g id="edge3" class="edge"><title>Article&#45;&gt;Trackback</title>
<path fill="none" stroke="#267613" d="M750.201,-175.842C790.119,-168.581 846.663,-151.232 874,-110 882.841,-96.6648 882.744,-87.3996 874,-74 858.49,-50.2311 830.154,-36.6651 804.377,-28.9573"/>
<ellipse fill="none" stroke="#267613" cx="746.145" cy="-176.532" rx="4.00001" ry="4.00001"/>
<polygon fill="#267613" stroke="#267613" points="804.297,-28.9353 795.85,-21.9424 799.476,-27.6081 794.655,-26.281 794.655,-26.281 794.655,-26.281 799.476,-27.6081 793.461,-30.6196 804.297,-28.9353 804.297,-28.9353"/>
</g>
<!-- Feedback -->
<g id="node13" class="node"><title>Feedback</title>
<ellipse fill="none" stroke="black" cx="665" cy="-92" rx="48.0563" ry="18"/>
<text text-anchor="middle" x="665" y="-86.4" font-family="Times,serif" font-size="14.00">Feedback</text>
</g>
<!-- Article&#45;&gt;Feedback -->
<g id="edge4" class="edge"><title>Article&#45;&gt;Feedback</title>
<path fill="none" stroke="#d91333" d="M670.109,-166.972C650.898,-159.102 630.635,-150.07 628,-146 621.36,-135.742 627.063,-124.622 635.81,-115.228"/>
<ellipse fill="none" stroke="#d91333" cx="673.952" cy="-168.528" rx="4.00001" ry="4.00001"/>
<polygon fill="#d91333" stroke="#d91333" points="636.049,-115.001 646.399,-111.378 639.674,-111.558 643.3,-108.115 643.3,-108.115 643.3,-108.115 639.674,-111.558 640.201,-104.852 636.049,-115.001 636.049,-115.001"/>
</g>
<!-- Resource -->
<g id="node23" class="node"><title>Resource</title>
<ellipse fill="none" stroke="black" cx="1152" cy="-92" rx="46.4511" ry="18"/>
<text text-anchor="middle" x="1152" y="-86.4" font-family="Times,serif" font-size="14.00">Resource</text>
</g>
<!-- Article&#45;&gt;Resource -->
<g id="edge5" class="edge"><title>Article&#45;&gt;Resource</title>
<path fill="none" stroke="#f70d48" d="M750.658,-177.011C802.898,-171.884 891.815,-161.723 967,-146 1016.08,-135.735 1071.2,-119.289 1108.41,-107.438"/>
<ellipse fill="none" stroke="#f70d48" cx="746.578" cy="-177.405" rx="4" ry="4"/>
<polygon fill="#f70d48" stroke="#f70d48" points="1108.42,-107.436 1119.31,-108.663 1113.18,-105.907 1117.94,-104.379 1117.94,-104.379 1117.94,-104.379 1113.18,-105.907 1116.56,-100.094 1108.42,-107.436 1108.42,-107.436"/>
</g>
<!-- Categorization -->
<g id="node6" class="node"><title>Categorization</title>
<ellipse fill="none" stroke="black" cx="161" cy="-18" rx="67.3273" ry="18"/>
<text text-anchor="middle" x="161" y="-12.4" font-family="Times,serif" font-size="14.00">Categorization</text>
</g>
<!-- Article&#45;&gt;Categorization -->
<g id="edge6" class="edge"><title>Article&#45;&gt;Categorization</title>
<path fill="none" stroke="#0274e7" d="M670.637,-167.173C666.749,-165.964 662.817,-164.872 659,-164 582.343,-146.496 556.941,-172.749 483,-146 429.099,-126.501 428.306,-97.4445 376,-74 328.378,-52.655 270.962,-38.5003 227.446,-29.9025"/>
<ellipse fill="none" stroke="#0274e7" cx="674.706" cy="-168.523" rx="4.00001" ry="4.00001"/>
<polygon fill="#0274e7" stroke="#0274e7" points="227.361,-29.8861 218.393,-23.575 222.451,-28.9399 217.542,-27.9937 217.542,-27.9937 217.542,-27.9937 222.451,-28.9399 216.69,-32.4124 227.361,-29.8861 227.361,-29.8861"/>
</g>
<!-- Category -->
<g id="node7" class="node"><title>Category</title>
<ellipse fill="none" stroke="black" cx="161" cy="-92" rx="46.1519" ry="18"/>
<text text-anchor="middle" x="161" y="-86.4" font-family="Times,serif" font-size="14.00">Category</text>
</g>
<!-- Article&#45;&gt;Category -->
<g id="edge7" class="edge"><title>Article&#45;&gt;Category</title>
<path fill="none" stroke="#f3112a" d="M668.825,-166.458C665.536,-165.506 662.23,-164.664 659,-164 525.56,-136.546 487.406,-168.249 353,-146 301.013,-137.395 242.888,-120.255 204.351,-107.79"/>
<polygon fill="#f3112a" stroke="#f3112a" points="669.025,-166.522 677.173,-173.861 673.787,-168.049 678.548,-169.576 678.548,-169.576 678.548,-169.576 673.787,-168.049 679.922,-165.291 669.025,-166.522 669.025,-166.522"/>
<polygon fill="#f3112a" stroke="#f3112a" points="204.012,-107.679 195.907,-100.293 199.26,-106.125 194.507,-104.57 194.507,-104.57 194.507,-104.57 199.26,-106.125 193.108,-108.847 204.012,-107.679 204.012,-107.679"/>
</g>
<!-- Comment -->
<g id="node8" class="node"><title>Comment</title>
<ellipse fill="none" stroke="black" cx="589" cy="-18" rx="49.1903" ry="18"/>
<text text-anchor="middle" x="589" y="-12.4" font-family="Times,serif" font-size="14.00">Comment</text>
</g>
<!-- Article&#45;&gt;Comment -->
<g id="edge8" class="edge"><title>Article&#45;&gt;Comment</title>
<path fill="none" stroke="#1d1de7" d="M669.697,-167.398C648.704,-159.267 625.711,-149.801 622,-146 596.034,-119.406 589.762,-75.1242 588.627,-46.5029"/>
<ellipse fill="none" stroke="#1d1de7" cx="673.567" cy="-168.885" rx="4.00001" ry="4.00001"/>
<polygon fill="#1d1de7" stroke="#1d1de7" points="588.624,-46.3675 592.913,-36.2749 588.519,-41.3686 588.414,-36.3697 588.414,-36.3697 588.414,-36.3697 588.519,-41.3686 583.915,-36.4646 588.624,-46.3675 588.624,-46.3675"/>
</g>
<!-- Article&#45;&gt;Comment -->
<g id="edge9" class="edge"><title>Article&#45;&gt;Comment</title>
<path fill="none" stroke="#041d9e" d="M669.555,-167.535C666,-166.306 662.437,-165.109 659,-164 575.455,-137.054 521.924,-180.045 469.014,-110 459.37,-97.233 460.373,-87.4661 469.014,-74 483.872,-50.8445 511.185,-37.3111 536.002,-29.4675"/>
<ellipse fill="none" stroke="#041d9e" cx="673.504" cy="-168.923" rx="4.00001" ry="4.00001"/>
<polygon fill="#041d9e" stroke="#041d9e" points="536.118,-29.4338 546.977,-30.9557 540.918,-28.0347 545.718,-26.6355 545.718,-26.6355 545.718,-26.6355 540.918,-28.0347 544.459,-22.3153 536.118,-29.4338 536.118,-29.4338"/>
<text text-anchor="middle" x="529.493" y="-86.4" font-family="Times,serif" font-size="14.00">published_comments</text>
</g>
<!-- Article&#45;&gt;Trackback -->
<g id="edge10" class="edge"><title>Article&#45;&gt;Trackback</title>
<path fill="none" stroke="#933e81" d="M740.887,-165.613C748.526,-160.52 755.629,-154.041 760,-146 763.82,-138.971 762.213,-135.688 760,-128 757.388,-118.923 751.315,-119.077 748.703,-110 742.713,-89.1859 743.223,-64.5672 744.99,-46.1881"/>
<ellipse fill="none" stroke="#933e81" cx="737.207" cy="-167.837" rx="4.00002" ry="4.00002"/>
<polygon fill="#933e81" stroke="#933e81" points="745,-46.0989 750.607,-36.6747 745.568,-41.1313 746.136,-36.1636 746.136,-36.1636 746.136,-36.1636 745.568,-41.1313 741.665,-35.6526 745,-46.0989 745,-46.0989"/>
<text text-anchor="middle" x="809.648" y="-86.4" font-family="Times,serif" font-size="14.00">published_trackbacks</text>
</g>
<!-- Article&#45;&gt;Feedback -->
<g id="edge11" class="edge"><title>Article&#45;&gt;Feedback</title>
<path fill="none" stroke="#14225a" d="M669.587,-166.689C661.02,-161.508 652.96,-154.718 648.041,-146 643.249,-137.507 644.872,-127.472 648.596,-118.431"/>
<ellipse fill="none" stroke="#14225a" cx="673.337" cy="-168.746" rx="4.00002" ry="4.00002"/>
<polygon fill="#14225a" stroke="#14225a" points="648.599,-118.427 657.086,-111.483 650.828,-113.951 653.058,-109.476 653.058,-109.476 653.058,-109.476 650.828,-113.951 649.03,-107.469 648.599,-118.427 648.599,-118.427"/>
<text text-anchor="middle" x="704.979" y="-131.4" font-family="Times,serif" font-size="14.00">published_feedback</text>
</g>
<!-- Tag -->
<g id="node26" class="node"><title>Tag</title>
<ellipse fill="none" stroke="black" cx="960" cy="-92" rx="27" ry="18"/>
<text text-anchor="middle" x="960" y="-86.4" font-family="Times,serif" font-size="14.00">Tag</text>
</g>
<!-- Article&#45;&gt;Tag -->
<g id="edge12" class="edge"><title>Article&#45;&gt;Tag</title>
<path fill="none" stroke="#7c1a21" d="M753.55,-180.205C795.234,-177.784 856.43,-169.95 904,-146 918.239,-138.831 931.349,-126.862 941.3,-116.11"/>
<polygon fill="#7c1a21" stroke="#7c1a21" points="753.38,-180.214 743.169,-176.216 748.386,-180.462 743.392,-180.711 743.392,-180.711 743.392,-180.711 748.386,-180.462 743.616,-185.205 753.38,-180.214 753.38,-180.214"/>
<polygon fill="#7c1a21" stroke="#7c1a21" points="941.332,-116.073 951.328,-111.564 944.645,-112.328 947.957,-108.583 947.957,-108.583 947.957,-108.583 944.645,-112.328 944.586,-105.601 941.332,-116.073 941.332,-116.073"/>
</g>
<!-- Blog -->
<g id="node4" class="node"><title>Blog</title>
<ellipse fill="none" stroke="black" cx="29" cy="-346" rx="29.2299" ry="18"/>
<text text-anchor="middle" x="29" y="-340.4" font-family="Times,serif" font-size="14.00">Blog</text>
</g>
<!-- BlogSweeper -->
<g id="node5" class="node"><title>BlogSweeper</title>
<polygon fill="none" stroke="black" points="1279.57,-364 1188.43,-364 1188.43,-328 1279.57,-328 1279.57,-364"/>
<text text-anchor="middle" x="1234" y="-340.4" font-family="Times,serif" font-size="14.00">BlogSweeper</text>
</g>
<!-- Category&#45;&gt;Category -->
<g id="edge17" class="edge"><title>Category&#45;&gt;Category</title>
<path fill="none" stroke="#25169f" d="M212.347,-98.1072C219.901,-97.1471 225,-95.1113 225,-92 225,-89.1479 220.715,-87.1997 214.183,-86.1552"/>
<ellipse fill="none" stroke="#25169f" cx="208.062" cy="-98.4187" rx="4" ry="4"/>
<polygon fill="#25169f" stroke="#25169f" points="214.036,-86.1428 204.456,-80.8075 209.054,-85.717 204.072,-85.2912 204.072,-85.2912 204.072,-85.2912 209.054,-85.717 203.689,-89.7749 214.036,-86.1428 214.036,-86.1428"/>
<text text-anchor="middle" x="247.935" y="-86.4" font-family="Times,serif" font-size="14.00">children</text>
</g>
<!-- Category&#45;&gt;Categorization -->
<g id="edge18" class="edge"><title>Category&#45;&gt;Categorization</title>
<path fill="none" stroke="#66e526" d="M161,-65.7923C161,-59.5805 161,-52.8963 161,-46.5786"/>
<ellipse fill="none" stroke="#66e526" cx="161" cy="-69.937" rx="4" ry="4"/>
<polygon fill="#66e526" stroke="#66e526" points="161,-46.4407 165.5,-36.4406 161,-41.4407 161,-36.4407 161,-36.4407 161,-36.4407 161,-41.4407 156.5,-36.4407 161,-46.4407 161,-46.4407"/>
</g>
<!-- ConfigManager -->
<g id="node9" class="node"><title>ConfigManager</title>
<polygon fill="none" stroke="black" stroke-dasharray="1,5" points="1508.41,-463 1405.59,-463 1405.59,-427 1508.41,-427 1508.41,-463"/>
<text text-anchor="middle" x="1457" y="-439.4" font-family="Times,serif" font-size="14.00">ConfigManager</text>
</g>
<!-- Content -->
<g id="node10" class="node"><title>Content</title>
<ellipse fill="none" stroke="black" cx="469" cy="-346" rx="41.4224" ry="18"/>
<text text-anchor="middle" x="469" y="-340.4" font-family="Times,serif" font-size="14.00">Content</text>
</g>
<!-- Content&#45;&gt;Article -->
<g id="edge13" class="edge"><title>Content&#45;&gt;Article</title>
<path fill="none" stroke="black" d="M510.359,-343.494C564.538,-340.641 655.43,-332.548 679,-310 709.134,-281.173 709.815,-227.687 707.875,-200.236"/>
</g>
<!-- Notification -->
<g id="node14" class="node"><title>Notification</title>
<ellipse fill="none" stroke="black" cx="593" cy="-182" rx="57.2568" ry="18"/>
<text text-anchor="middle" x="593" y="-176.4" font-family="Times,serif" font-size="14.00">Notification</text>
</g>
<!-- Content&#45;&gt;Notification -->
<g id="edge21" class="edge"><title>Content&#45;&gt;Notification</title>
<path fill="none" stroke="#60c189" d="M471.15,-319.474C473.053,-309.982 476.564,-299.667 483,-292 495.274,-277.378 507.04,-285.86 522,-274 545.149,-255.648 565.182,-228.255 578.011,-208.32"/>
<ellipse fill="none" stroke="#60c189" cx="470.493" cy="-323.566" rx="4.00001" ry="4.00001"/>
<polygon fill="#60c189" stroke="#60c189" points="578.074,-208.219 587.197,-202.134 580.729,-203.981 583.383,-199.744 583.383,-199.744 583.383,-199.744 580.729,-203.981 579.57,-197.355 578.074,-208.219 578.074,-208.219"/>
</g>
<!-- User -->
<g id="node31" class="node"><title>User</title>
<ellipse fill="none" stroke="black" cx="603" cy="-256" rx="28.9087" ry="18"/>
<text text-anchor="middle" x="603" y="-250.4" font-family="Times,serif" font-size="14.00">User</text>
</g>
<!-- Content&#45;&gt;User -->
<g id="edge22" class="edge"><title>Content&#45;&gt;User</title>
<path fill="none" stroke="#831e14" d="M480.736,-319.009C486.223,-309.352 493.598,-299.043 502.786,-292 523.942,-275.782 534.875,-282.906 560,-274 563.277,-272.838 566.676,-271.583 570.062,-270.299"/>
<polygon fill="#831e14" stroke="#831e14" points="480.697,-319.083 472.07,-325.852 478.377,-323.512 476.056,-327.941 476.056,-327.941 476.056,-327.941 478.377,-323.512 480.042,-330.029 480.697,-319.083 480.697,-319.083"/>
<polygon fill="#831e14" stroke="#831e14" points="570.133,-270.272 581.084,-270.855 574.796,-268.466 579.458,-266.659 579.458,-266.659 579.458,-266.659 574.796,-268.466 577.832,-262.463 570.133,-270.272 570.133,-270.272"/>
<text text-anchor="middle" x="537.607" y="-295.4" font-family="Times,serif" font-size="14.00">notify_users</text>
</g>
<!-- Redirection -->
<g id="node22" class="node"><title>Redirection</title>
<ellipse fill="none" stroke="black" cx="332" cy="-182" rx="56.1299" ry="18"/>
<text text-anchor="middle" x="332" y="-176.4" font-family="Times,serif" font-size="14.00">Redirection</text>
</g>
<!-- Content&#45;&gt;Redirection -->
<g id="edge23" class="edge"><title>Content&#45;&gt;Redirection</title>
<path fill="none" stroke="#dee012" d="M442.678,-324.679C437.28,-320.075 431.79,-315.048 427,-310 418.526,-301.069 375.527,-242.634 350.378,-208.221"/>
<ellipse fill="none" stroke="#dee012" cx="445.847" cy="-327.31" rx="4.00002" ry="4.00002"/>
<polygon fill="#dee012" stroke="#dee012" points="350.297,-208.111 348.034,-197.381 347.349,-204.073 344.4,-200.035 344.4,-200.035 344.4,-200.035 347.349,-204.073 340.766,-202.688 350.297,-208.111 350.297,-208.111"/>
</g>
<!-- Redirect -->
<g id="node21" class="node"><title>Redirect</title>
<ellipse fill="none" stroke="black" cx="320" cy="-256" rx="43.6191" ry="18"/>
<text text-anchor="middle" x="320" y="-250.4" font-family="Times,serif" font-size="14.00">Redirect</text>
</g>
<!-- Content&#45;&gt;Redirect -->
<g id="edge24" class="edge"><title>Content&#45;&gt;Redirect</title>
<path fill="none" stroke="#145eca" d="M427.952,-330.889C408.169,-323.754 386.846,-315.47 378,-310 364.872,-301.883 352.018,-290.586 341.76,-280.507"/>
<polygon fill="#145eca" stroke="#145eca" points="428.058,-330.927 435.968,-338.522 432.768,-332.605 437.478,-334.282 437.478,-334.282 437.478,-334.282 432.768,-332.605 438.988,-330.043 428.058,-330.927 428.058,-330.927"/>
<polygon fill="#145eca" stroke="#145eca" points="341.484,-280.228 337.663,-269.949 337.972,-276.669 334.46,-273.11 334.46,-273.11 334.46,-273.11 337.972,-276.669 331.257,-276.27 341.484,-280.228 341.484,-280.228"/>
</g>
<!-- Content&#45;&gt;Trigger -->
<g id="edge25" class="edge"><title>Content&#45;&gt;Trigger</title>
<path fill="none" stroke="#fc960b" d="M429.884,-331.717C425.88,-330.43 421.865,-329.17 418,-328 349.785,-307.346 306.362,-333.418 267,-274 240,-233.243 250.012,-209.842 267,-164 274.034,-145.02 288.663,-127.702 301.832,-114.921"/>
<ellipse fill="none" stroke="#fc960b" cx="433.726" cy="-332.968" rx="4.00001" ry="4.00001"/>
<polygon fill="#fc960b" stroke="#fc960b" points="302.02,-114.747 312.41,-111.24 305.684,-111.345 309.348,-107.943 309.348,-107.943 309.348,-107.943 305.684,-111.345 306.286,-104.645 302.02,-114.747 302.02,-114.747"/>
</g>
<!-- Content&#45;&gt;Feedback -->
<g id="edge28" class="edge"><title>Content&#45;&gt;Feedback</title>
<path fill="none" stroke="black" d="M466.13,-327.61C465.128,-316.921 465.246,-303.179 470,-292 474.428,-281.589 481.961,-283.567 488,-274 515.687,-230.137 492.869,-203.059 527,-164 553.771,-133.364 596.973,-114.167 627.908,-103.573"/>
</g>
<!-- Page -->
<g id="node16" class="node"><title>Page</title>
<ellipse fill="none" stroke="black" cx="450" cy="-256" rx="29.216" ry="18"/>
<text text-anchor="middle" x="450" y="-250.4" font-family="Times,serif" font-size="14.00">Page</text>
</g>
<!-- Content&#45;&gt;Page -->
<g id="edge31" class="edge"><title>Content&#45;&gt;Page</title>
<path fill="none" stroke="black" d="M448.207,-330.108C442.133,-324.558 436.257,-317.709 433,-310 427.885,-297.894 433.003,-283.693 438.924,-273.039"/>
</g>
<!-- EmailNotifier -->
<g id="node11" class="node"><title>EmailNotifier</title>
<polygon fill="none" stroke="black" points="1625.24,-364 1532.76,-364 1532.76,-328 1625.24,-328 1625.24,-364"/>
<text text-anchor="middle" x="1579" y="-340.4" font-family="Times,serif" font-size="14.00">EmailNotifier</text>
</g>
<!-- Feedback::States -->
<g id="node12" class="node"><title>Feedback::States</title>
<polygon fill="none" stroke="black" stroke-dasharray="1,5" points="1866.15,-463 1755.85,-463 1755.85,-427 1866.15,-427 1866.15,-463"/>
<text text-anchor="middle" x="1811" y="-439.4" font-family="Times,serif" font-size="14.00">Feedback::States</text>
</g>
<!-- Feedback&#45;&gt;Comment -->
<g id="edge20" class="edge"><title>Feedback&#45;&gt;Comment</title>
<path fill="none" stroke="black" d="M648.133,-75.0209C635.539,-63.0892 618.403,-46.8553 605.82,-34.9345"/>
</g>
<!-- Feedback&#45;&gt;Trackback -->
<g id="edge46" class="edge"><title>Feedback&#45;&gt;Trackback</title>
<path fill="none" stroke="black" d="M683.642,-75.0209C697.563,-63.0892 716.502,-46.8553 730.41,-34.9345"/>
</g>
<!-- NotificationMailer -->
<g id="node15" class="node"><title>NotificationMailer</title>
<polygon fill="none" stroke="black" points="2032.15,-364 1911.85,-364 1911.85,-328 2032.15,-328 2032.15,-364"/>
<text text-anchor="middle" x="1972" y="-340.4" font-family="Times,serif" font-size="14.00">NotificationMailer</text>
</g>
<!-- PageCache -->
<g id="node17" class="node"><title>PageCache</title>
<polygon fill="none" stroke="black" points="2128.15,-364 2049.85,-364 2049.85,-328 2128.15,-328 2128.15,-364"/>
<text text-anchor="middle" x="2089" y="-340.4" font-family="Times,serif" font-size="14.00">PageCache</text>
</g>
<!-- PostType -->
<g id="node19" class="node"><title>PostType</title>
<ellipse fill="none" stroke="black" cx="363" cy="-346" rx="46.2687" ry="18"/>
<text text-anchor="middle" x="363" y="-340.4" font-family="Times,serif" font-size="14.00">PostType</text>
</g>
<!-- Profile -->
<g id="node20" class="node"><title>Profile</title>
<ellipse fill="none" stroke="black" cx="816" cy="-256" rx="36.1907" ry="18"/>
<text text-anchor="middle" x="816" y="-250.4" font-family="Times,serif" font-size="14.00">Profile</text>
</g>
<!-- Redirect&#45;&gt;Redirection -->
<g id="edge36" class="edge"><title>Redirect&#45;&gt;Redirection</title>
<path fill="none" stroke="#4dda29" d="M324.201,-229.792C325.237,-223.58 326.351,-216.896 327.404,-210.579"/>
<ellipse fill="none" stroke="#4dda29" cx="323.501" cy="-233.991" rx="4.00001" ry="4.00001"/>
<polygon fill="#4dda29" stroke="#4dda29" points="327.449,-210.305 333.532,-201.181 328.271,-205.373 329.093,-200.441 329.093,-200.441 329.093,-200.441 328.271,-205.373 324.654,-199.701 327.449,-210.305 327.449,-210.305"/>
</g>
<!-- Right -->
<g id="node24" class="node"><title>Right</title>
<ellipse fill="none" stroke="black" cx="769" cy="-346" rx="32.2509" ry="18"/>
<text text-anchor="middle" x="769" y="-340.4" font-family="Times,serif" font-size="14.00">Right</text>
</g>
<!-- Right&#45;&gt;Profile -->
<g id="edge40" class="edge"><title>Right&#45;&gt;Profile</title>
<path fill="none" stroke="#b2d278" d="M782.725,-319.302C788.896,-307.747 796.162,-294.143 802.328,-282.599"/>
<polygon fill="#b2d278" stroke="#b2d278" points="782.551,-319.627 773.871,-326.328 780.196,-324.037 777.84,-328.448 777.84,-328.448 777.84,-328.448 780.196,-324.037 781.81,-330.568 782.551,-319.627 782.551,-319.627"/>
<polygon fill="#b2d278" stroke="#b2d278" points="802.488,-282.299 811.169,-275.598 804.844,-277.888 807.199,-273.478 807.199,-273.478 807.199,-273.478 804.844,-277.888 803.23,-271.358 802.488,-282.299 802.488,-282.299"/>
</g>
<!-- Sidebar -->
<g id="node25" class="node"><title>Sidebar</title>
<ellipse fill="none" stroke="black" cx="899" cy="-346" rx="40.303" ry="18"/>
<text text-anchor="middle" x="899" y="-340.4" font-family="Times,serif" font-size="14.00">Sidebar</text>
</g>
<!-- TextFilter -->
<g id="node27" class="node"><title>TextFilter</title>
<ellipse fill="none" stroke="black" cx="1045" cy="-346" rx="48.4711" ry="18"/>
<text text-anchor="middle" x="1045" y="-340.4" font-family="Times,serif" font-size="14.00">TextFilter</text>
</g>
<!-- Theme -->
<g id="node28" class="node"><title>Theme</title>
<polygon fill="none" stroke="black" points="2201.15,-364 2146.85,-364 2146.85,-328 2201.15,-328 2201.15,-364"/>
<text text-anchor="middle" x="2174" y="-340.4" font-family="Times,serif" font-size="14.00">Theme</text>
</g>
<!-- User&#45;&gt;Notification -->
<g id="edge48" class="edge"><title>User&#45;&gt;Notification</title>
<path fill="none" stroke="#56ec61" d="M599.499,-229.792C598.636,-223.58 597.708,-216.896 596.83,-210.579"/>
<ellipse fill="none" stroke="#56ec61" cx="600.08" cy="-233.975" rx="4.00001" ry="4.00001"/>
<polygon fill="#56ec61" stroke="#56ec61" points="596.798,-210.346 599.88,-199.822 596.11,-205.393 595.422,-200.441 595.422,-200.441 595.422,-200.441 596.11,-205.393 590.965,-201.06 596.798,-210.346 596.798,-210.346"/>
</g>
<!-- User&#45;&gt;Content -->
<g id="edge49" class="edge"><title>User&#45;&gt;Content</title>
<path fill="none" stroke="#a8797c" d="M592.418,-283.179C587.444,-292.735 580.671,-302.922 572,-310 556.249,-322.856 535.532,-331.089 516.809,-336.314"/>
<polygon fill="#a8797c" stroke="#a8797c" points="592.501,-283.003 600.859,-275.904 594.648,-278.487 596.795,-273.972 596.795,-273.972 596.795,-273.972 594.648,-278.487 592.731,-272.039 592.501,-283.003 592.501,-283.003"/>
<polygon fill="#a8797c" stroke="#a8797c" points="516.634,-336.359 505.828,-334.49 511.791,-337.603 506.949,-338.848 506.949,-338.848 506.949,-338.848 511.791,-337.603 508.069,-343.207 516.634,-336.359 516.634,-336.359"/>
<text text-anchor="middle" x="631.548" y="-295.4" font-family="Times,serif" font-size="14.00">notify_contents</text>
</g>
<!-- User&#45;&gt;Article -->
<g id="edge50" class="edge"><title>User&#45;&gt;Article</title>
<path fill="none" stroke="#800aca" d="M628.565,-237.129C643.236,-226.874 661.706,-213.963 676.928,-203.322"/>
<ellipse fill="none" stroke="#800aca" cx="625.17" cy="-239.502" rx="4.00002" ry="4.00002"/>
<polygon fill="#800aca" stroke="#800aca" points="677.266,-203.086 688.04,-201.045 681.364,-200.221 685.462,-197.357 685.462,-197.357 685.462,-197.357 681.364,-200.221 682.884,-193.669 677.266,-203.086 677.266,-203.086"/>
</g>
<!-- WebNotifier -->
<g id="node32" class="node"><title>WebNotifier</title>
<polygon fill="none" stroke="black" points="1728.15,-364 1643.85,-364 1643.85,-328 1728.15,-328 1728.15,-364"/>
<text text-anchor="middle" x="1686" y="-340.4" font-family="Times,serif" font-size="14.00">WebNotifier</text>
</g>
<!-- ActiveRecord::Base -->
<g id="node33" class="node"><title>ActiveRecord::Base</title>
<ellipse fill="none" stroke="black" cx="670" cy="-445" rx="88.2033" ry="18"/>
<text text-anchor="middle" x="670" y="-439.4" font-family="Times,serif" font-size="14.00">ActiveRecord::Base</text>
</g>
<!-- ActiveRecord::Base&#45;&gt;Blog -->
<g id="edge14" class="edge"><title>ActiveRecord::Base&#45;&gt;Blog</title>
<path fill="none" stroke="black" d="M640.507,-427.959C621.536,-418.51 596.023,-407.384 572,-402 463.725,-377.734 176.547,-423.879 73,-384 61.2645,-379.48 50.4222,-370.446 42.4368,-362.437"/>
</g>
<!-- ActiveRecord::Base&#45;&gt;Categorization -->
<g id="edge16" class="edge"><title>ActiveRecord::Base&#45;&gt;Categorization</title>
<path fill="none" stroke="black" d="M640.058,-427.833C621.125,-418.463 595.814,-407.468 572,-402 404.181,-363.469 353.834,-417.807 185,-384 139.35,-374.859 87,-393.556 87,-347 87,-347 87,-347 87,-91 87,-65.7259 109.449,-46.4509 129.617,-34.2337"/>
</g>
<!-- ActiveRecord::Base&#45;&gt;Category -->
<g id="edge19" class="edge"><title>ActiveRecord::Base&#45;&gt;Category</title>
<path fill="none" stroke="black" d="M640.055,-427.844C621.122,-418.479 595.811,-407.484 572,-402 490.483,-383.226 276.088,-408.156 196,-384 165.278,-374.734 134,-379.089 134,-347 134,-347 134,-347 134,-181 134,-155.271 144.679,-127.098 152.605,-109.732"/>
</g>
<!-- ActiveRecord::Base&#45;&gt;Content -->
<g id="edge26" class="edge"><title>ActiveRecord::Base&#45;&gt;Content</title>
<path fill="none" stroke="black" d="M637.259,-428.199C597.768,-409.142 532.15,-377.475 495.621,-359.847"/>
</g>
<!-- ActiveRecord::Base&#45;&gt;Notification -->
<g id="edge29" class="edge"><title>ActiveRecord::Base&#45;&gt;Notification</title>
<path fill="none" stroke="black" d="M679.512,-426.973C694.253,-398.203 719.033,-338.559 700,-292 683.243,-251.008 642.814,-217.113 616.729,-198.499"/>
</g>
<!-- ActiveRecord::Base&#45;&gt;Ping -->
<g id="edge33" class="edge"><title>ActiveRecord::Base&#45;&gt;Ping</title>
<path fill="none" stroke="black" d="M757.954,-442.794C889.447,-438.571 1122,-420.688 1122,-347 1122,-347 1122,-347 1122,-181 1122,-147.837 1090.99,-120.302 1069.67,-105.29"/>
</g>
<!-- ActiveRecord::Base&#45;&gt;PostType -->
<g id="edge34" class="edge"><title>ActiveRecord::Base&#45;&gt;PostType</title>
<path fill="none" stroke="black" d="M636.96,-428.242C618.2,-419.702 594.114,-409.412 572,-402 505.157,-379.596 485.927,-382.861 418,-364 411.452,-362.182 404.501,-360.13 397.825,-358.097"/>
</g>
<!-- ActiveRecord::Base&#45;&gt;Profile -->
<g id="edge35" class="edge"><title>ActiveRecord::Base&#45;&gt;Profile</title>
<path fill="none" stroke="black" d="M718.174,-429.882C750.019,-417.836 789.534,-397.095 810,-364 827.125,-336.307 823.641,-296.475 819.721,-274.04"/>
</g>
<!-- ActiveRecord::Base&#45;&gt;Redirect -->
<g id="edge37" class="edge"><title>ActiveRecord::Base&#45;&gt;Redirect</title>
<path fill="none" stroke="black" d="M638.548,-428.011C619.695,-419.068 594.99,-408.453 572,-402 514.722,-385.922 345.967,-408.953 307,-364 285.182,-338.831 299.99,-296.932 311.039,-273.737"/>
</g>
<!-- ActiveRecord::Base&#45;&gt;Redirection -->
<g id="edge38" class="edge"><title>ActiveRecord::Base&#45;&gt;Redirection</title>
<path fill="none" stroke="black" d="M639.568,-427.867C620.662,-418.635 595.552,-407.772 572,-402 511.012,-387.053 332.605,-411.897 292,-364 255.081,-320.452 242.979,-289.792 267,-238 274.899,-220.969 290.958,-207.3 305.136,-197.849"/>
</g>
<!-- ActiveRecord::Base&#45;&gt;Resource -->
<g id="edge39" class="edge"><title>ActiveRecord::Base&#45;&gt;Resource</title>
<path fill="none" stroke="black" d="M752.216,-438.186C862.183,-429.508 1050.66,-411.216 1114,-384 1138.11,-373.641 1160,-373.237 1160,-347 1160,-347 1160,-347 1160,-181 1160,-156.301 1156.84,-127.863 1154.49,-110.158"/>
</g>
<!-- ActiveRecord::Base&#45;&gt;Right -->
<g id="edge41" class="edge"><title>ActiveRecord::Base&#45;&gt;Right</title>
<path fill="none" stroke="black" d="M687.244,-427.104C705.969,-408.757 735.601,-379.724 753.579,-362.11"/>
</g>
<!-- ActiveRecord::Base&#45;&gt;Sidebar -->
<g id="edge42" class="edge"><title>ActiveRecord::Base&#45;&gt;Sidebar</title>
<path fill="none" stroke="black" d="M720.9,-430.267C756.362,-419.79 804.243,-403.803 844,-384 856.464,-377.792 869.433,-369.186 879.645,-361.837"/>
</g>
<!-- ActiveRecord::Base&#45;&gt;Tag -->
<g id="edge43" class="edge"><title>ActiveRecord::Base&#45;&gt;Tag</title>
<path fill="none" stroke="black" d="M743.281,-434.92C831.516,-421.895 968,-394.131 968,-347 968,-347 968,-347 968,-181 968,-156.301 964.836,-127.863 962.487,-110.158"/>
</g>
<!-- ActiveRecord::Base&#45;&gt;TextFilter -->
<g id="edge44" class="edge"><title>ActiveRecord::Base&#45;&gt;TextFilter</title>
<path fill="none" stroke="black" d="M747.973,-436.471C812.332,-428.508 905.225,-412.943 982,-384 996.48,-378.541 1011.47,-369.882 1023.19,-362.313"/>
</g>
<!-- ActiveRecord::Base&#45;&gt;Trigger -->
<g id="edge47" class="edge"><title>ActiveRecord::Base&#45;&gt;Trigger</title>
<path fill="none" stroke="black" d="M640.009,-428.04C621.058,-418.749 595.745,-407.763 572,-402 484.806,-380.838 172,-436.725 172,-347 172,-347 172,-347 172,-181 172,-152.548 251.716,-119.805 297.179,-103.445"/>
</g>
<!-- ActiveRecord::Base&#45;&gt;User -->
<g id="edge51" class="edge"><title>ActiveRecord::Base&#45;&gt;User</title>
<path fill="none" stroke="black" d="M677.064,-426.861C688.198,-396.872 705.945,-334.074 679,-292 668.424,-275.486 647.867,-266.656 630.798,-261.998"/>
</g>
<!-- ActionController::Caching::Sweeper -->
<g id="node34" class="node"><title>ActionController::Caching::Sweeper</title>
<ellipse fill="none" stroke="black" cx="1234" cy="-445" rx="153.262" ry="18"/>
<text text-anchor="middle" x="1234" y="-439.4" font-family="Times,serif" font-size="14.00">ActionController::Caching::Sweeper</text>
</g>
<!-- ActionController::Caching::Sweeper&#45;&gt;BlogSweeper -->
<g id="edge15" class="edge"><title>ActionController::Caching::Sweeper&#45;&gt;BlogSweeper</title>
<path fill="none" stroke="black" d="M1234,-426.658C1234,-409.002 1234,-381.793 1234,-364.192"/>
</g>
<!-- ActiveRecord::Observer -->
<g id="node35" class="node"><title>ActiveRecord::Observer</title>
<ellipse fill="none" stroke="black" cx="1632" cy="-445" rx="105.134" ry="18"/>
<text text-anchor="middle" x="1632" y="-439.4" font-family="Times,serif" font-size="14.00">ActiveRecord::Observer</text>
</g>
<!-- ActiveRecord::Observer&#45;&gt;EmailNotifier -->
<g id="edge27" class="edge"><title>ActiveRecord::Observer&#45;&gt;EmailNotifier</title>
<path fill="none" stroke="black" d="M1622.52,-426.658C1612.88,-409.002 1598.01,-381.793 1588.39,-364.192"/>
</g>
<!-- ActiveRecord::Observer&#45;&gt;WebNotifier -->
<g id="edge52" class="edge"><title>ActiveRecord::Observer&#45;&gt;WebNotifier</title>
<path fill="none" stroke="black" d="M1641.65,-426.658C1651.48,-409.002 1666.63,-381.793 1676.43,-364.192"/>
</g>
<!-- ActionMailer::Base -->
<g id="node36" class="node"><title>ActionMailer::Base</title>
<ellipse fill="none" stroke="black" cx="1972" cy="-445" rx="87.2974" ry="18"/>
<text text-anchor="middle" x="1972" y="-439.4" font-family="Times,serif" font-size="14.00">ActionMailer::Base</text>
</g>
<!-- ActionMailer::Base&#45;&gt;NotificationMailer -->
<g id="edge30" class="edge"><title>ActionMailer::Base&#45;&gt;NotificationMailer</title>
<path fill="none" stroke="black" d="M1972,-426.658C1972,-409.002 1972,-381.793 1972,-364.192"/>
</g>
<!-- Object -->
<g id="node37" class="node"><title>Object</title>
<ellipse fill="none" stroke="black" cx="2144" cy="-445" rx="36.1697" ry="18"/>
<text text-anchor="middle" x="2144" y="-439.4" font-family="Times,serif" font-size="14.00">Object</text>
</g>
<!-- Object&#45;&gt;PageCache -->
<g id="edge32" class="edge"><title>Object&#45;&gt;PageCache</title>
<path fill="none" stroke="black" d="M2134.67,-427.545C2124.68,-409.924 2108.9,-382.089 2098.75,-364.19"/>
</g>
<!-- Object&#45;&gt;Theme -->
<g id="edge45" class="edge"><title>Object&#45;&gt;Theme</title>
<path fill="none" stroke="black" d="M2149.23,-427.104C2154.7,-409.409 2163.25,-381.772 2168.73,-364.028"/>
</g>
</g>
</svg>
